<svg xmlns="http://www.w3.org/2000/svg" width="24" height="24" viewBox="0 0 24 24"><path fill-rule="evenodd" clip-rule="evenodd" d="M12.0479 2.20002C9.6626 2.19759 7.35436 3.04471 5.53687 4.58956C3.71938 6.1344 2.51144 8.276 2.12952 10.6306C1.7476 12.9851 2.21666 15.3987 3.45265 17.4389C4.68864 19.479 6.61076 21.0123 8.87457 21.764C9.37984 21.8564 9.55853 21.5422 9.55853 21.2772V19.5704C6.75488 20.1804 6.16334 18.2209 6.16334 18.2209C5.97734 17.6136 5.5822 17.0919 5.04803 16.7482C4.14224 16.132 5.12198 16.132 5.12198 16.132C5.4395 16.1769 5.74265 16.2934 6.00847 16.4728C6.2743 16.6521 6.49583 16.8896 6.65629 17.1672C6.79262 17.4145 6.97644 17.6323 7.19718 17.8083C7.41792 17.9843 7.67124 18.115 7.94261 18.1929C8.21397 18.2707 8.49804 18.2942 8.77852 18.262C9.05899 18.2298 9.33035 18.1426 9.57702 18.0053C9.61569 17.4983 9.83423 17.0219 10.1932 16.662C7.96261 16.4093 5.62109 15.5467 5.62109 11.7325C5.60577 10.7361 5.97421 9.77195 6.65012 9.03971C6.34909 8.17337 6.38427 7.22558 6.74871 6.38394C6.74871 6.38394 7.59289 6.11282 9.50924 7.41297C11.1548 6.96116 12.8918 6.96116 14.5373 7.41297C16.4537 6.11282 17.2917 6.38394 17.2917 6.38394C17.6612 7.21667 17.7052 8.15766 17.4149 9.02122C18.0908 9.75346 18.4593 10.7176 18.444 11.714C18.444 15.5713 16.0963 16.4155 13.8595 16.6435C14.0994 16.8846 14.2846 17.1744 14.4026 17.4934C14.5206 17.8123 14.5687 18.1529 14.5435 18.492V21.2464C14.5435 21.573 14.7222 21.8256 15.2336 21.727C17.4717 20.9555 19.365 19.4178 20.5792 17.3857C21.7933 15.3535 22.2502 12.9575 21.869 10.6211C21.4878 8.28476 20.2932 6.15827 18.4961 4.61734C16.699 3.07642 14.4151 2.22022 12.0479 2.20002Z" fill="currentColor"></path></svg>