<svg xmlns="http://www.w3.org/2000/svg" width="24" height="24" viewBox="0 0 24 24"><path fill-rule="evenodd" clip-rule="evenodd" d="M14.8317 2.5C16.2504 2.50171 17.6368 2.92082 18.8157 3.70438C19.9947 4.48794 20.9132 5.6008 21.4553 6.90237C21.9975 8.20394 22.1389 9.63582 21.8617 11.0171C21.5845 12.3984 20.9011 13.6672 19.8979 14.6631C18.8947 15.6591 17.6167 16.3375 16.2253 16.6127C14.8339 16.8879 13.3915 16.7475 12.0805 16.2093C10.7694 15.6711 9.64839 14.7592 8.85911 13.5888C8.06982 12.4184 7.64765 11.0421 7.64593 9.63364C7.64593 7.74168 8.403 5.92721 9.75059 4.58939C11.0982 3.25158 12.9259 2.5 14.8317 2.5V2.5ZM2 21.5H5.47977V2.5H2V21.5Z" fill="currentColor"></path></svg>