<svg xmlns="http://www.w3.org/2000/svg" width="24" height="24" viewBox="0 0 24 24"><path fill-rule="evenodd" clip-rule="evenodd" d="M11.6951 8.40971L13.2985 3.85465L17.1334 4.77151C17.4135 4.05955 18.1052 3.556 18.9231 3.556C19.9852 3.556 20.8462 4.40959 20.8462 5.47908C20.8462 6.54116 19.9926 7.40215 18.9231 7.40215C17.8617 7.40215 17.0012 6.54972 17 5.48125L13.7627 4.70735L12.4575 8.41696C14.6685 8.50062 16.6676 9.12517 18.1651 10.0961C18.5724 9.73606 19.1074 9.51754 19.6923 9.51754C20.9668 9.51754 22 10.5533 22 11.8252C22 12.6741 21.5405 13.4159 20.8578 13.8167C20.8871 14.0142 20.9021 14.2144 20.9021 14.417C20.9021 17.7304 16.8854 20.4266 11.9479 20.4266C7.01019 20.4266 2.99346 17.7304 2.99346 14.417C2.99346 14.1942 3.01161 13.9743 3.04697 13.7578C2.41657 13.3453 2 12.6329 2 11.8252C2 10.5507 3.03578 9.51754 4.30769 9.51754C4.87218 9.51754 5.38934 9.72073 5.79035 10.0576C7.33938 9.0716 9.41171 8.4524 11.6951 8.40971ZM11.9313 18.245C9.63192 18.245 8.71192 17.201 8.67404 17.1566C8.54442 17.0052 8.56212 16.7772 8.71346 16.6481C8.86404 16.5197 9.08981 16.5362 9.21981 16.6852C9.24038 16.7077 10.0083 17.5239 11.9313 17.5239C13.8877 17.5239 14.7456 16.6789 14.7542 16.6706C14.8929 16.5293 15.121 16.526 15.2633 16.6645C15.4048 16.8027 15.41 17.0281 15.2733 17.1712C15.2313 17.2152 14.219 18.245 11.9313 18.245ZM13.5817 13.3556C13.5817 12.577 14.2131 11.945 14.9927 11.945C15.7717 11.945 16.4031 12.577 16.4031 13.3556C16.4031 14.1348 15.7717 14.7662 14.9927 14.7662C14.2131 14.7662 13.5817 14.1348 13.5817 13.3556ZM7.69231 13.3556C7.69231 12.577 8.32365 11.945 9.10327 11.945C9.88231 11.945 10.5137 12.577 10.5137 13.3556C10.5137 14.1348 9.88231 14.7662 9.10327 14.7662C8.32365 14.7662 7.69231 14.1348 7.69231 13.3556Z" fill="currentColor"></path></svg>